<svg width="28" height="28" viewBox="0 0 28 28" fill="none" xmlns="http://www.w3.org/2000/svg">
<path d="M24.0772 22.3718C25.4236 20.7519 26.36 18.8315 26.8072 16.7732C27.2544 14.7149 27.1993 12.5791 26.6466 10.5466C26.0938 8.51402 25.0596 6.64451 23.6316 5.09618C22.2035 3.54785 20.4235 2.36625 18.4421 1.65134C16.4608 0.936432 14.3364 0.709243 12.2487 0.988993C10.161 1.26874 8.17139 2.0472 6.44817 3.25852C4.72495 4.46983 3.31883 6.07837 2.34874 7.94805C1.37866 9.81773 0.87316 11.8936 0.875005 13.9999C0.875713 17.062 1.95477 20.026 3.92282 22.3718L3.90407 22.3877C3.96969 22.4665 4.04469 22.534 4.11219 22.6118C4.19657 22.7084 4.2875 22.7993 4.37469 22.893C4.63719 23.178 4.90719 23.4518 5.19032 23.7087C5.27657 23.7874 5.36563 23.8605 5.45282 23.9355C5.75282 24.1943 6.06125 24.4399 6.38094 24.6687C6.42219 24.6968 6.45969 24.7334 6.50094 24.7624V24.7512C8.69666 26.2963 11.316 27.1256 14.0009 27.1256C16.6858 27.1256 19.3052 26.2963 21.5009 24.7512V24.7624C21.5422 24.7334 21.5788 24.6968 21.6209 24.6687C21.9397 24.439 22.2491 24.1943 22.5491 23.9355C22.6363 23.8605 22.7253 23.7865 22.8116 23.7087C23.0947 23.4509 23.3647 23.178 23.6272 22.893C23.7144 22.7993 23.8044 22.7084 23.8897 22.6118C23.9563 22.534 24.0322 22.4665 24.0978 22.3868L24.0772 22.3718ZM14 6.49992C14.8344 6.49992 15.65 6.74734 16.3438 7.21091C17.0376 7.67447 17.5783 8.33335 17.8976 9.10422C18.2169 9.8751 18.3005 10.7233 18.1377 11.5417C17.9749 12.3601 17.5731 13.1118 16.9831 13.7018C16.3931 14.2918 15.6414 14.6936 14.823 14.8564C14.0047 15.0191 13.1564 14.9356 12.3856 14.6163C11.6147 14.297 10.9558 13.7562 10.4922 13.0625C10.0287 12.3687 9.78126 11.5531 9.78126 10.7187C9.78126 9.59979 10.2257 8.52673 11.0169 7.73556C11.8081 6.94439 12.8811 6.49992 14 6.49992ZM6.50657 22.3718C6.52283 21.1408 7.02308 19.9658 7.89909 19.1008C8.7751 18.2358 9.95643 17.7505 11.1875 17.7499H16.8125C18.0436 17.7505 19.2249 18.2358 20.1009 19.1008C20.9769 19.9658 21.4772 21.1408 21.4934 22.3718C19.4374 24.2246 16.7677 25.25 14 25.25C11.2323 25.25 8.56265 24.2246 6.50657 22.3718Z" fill="white"/>
</svg>
