<svg width="16" height="18" viewBox="0 0 16 18" fill="none" xmlns="http://www.w3.org/2000/svg">
<path d="M14.625 18H1.125C0.820314 18 0.556642 17.8916 0.333985 17.6748C0.111328 17.458 0 17.1914 0 16.875V1.14258C0 0.826172 0.111328 0.55957 0.333985 0.342773C0.556642 0.125977 0.820314 0.0175781 1.125 0.0175781H9.00002V6.20508C9.00002 6.35742 9.05568 6.48926 9.16701 6.60059C9.27834 6.71191 9.41017 6.76758 9.56252 6.76758H15.75V16.875C15.75 17.1914 15.6416 17.458 15.4248 17.6748C15.208 17.8916 14.9414 18 14.625 18ZM12.9375 14.625H12.375V10.6875C12.375 10.5352 12.3194 10.4033 12.208 10.292C12.0967 10.1807 11.9649 10.125 11.8125 10.125H10.6875C10.5352 10.125 10.4033 10.1807 10.292 10.292C10.1807 10.4033 10.125 10.5352 10.125 10.6875V14.625H9.00002V8.4375C9.00002 8.28516 8.94435 8.15332 8.83302 8.04199C8.7217 7.93066 8.58986 7.875 8.43752 7.875H7.31251C7.16017 7.875 7.02833 7.93066 6.91701 8.04199C6.80568 8.15332 6.75001 8.28516 6.75001 8.4375V14.625H5.62501V11.8125C5.62501 11.6602 5.56935 11.5283 5.45802 11.417C5.34669 11.3057 5.21485 11.25 5.06251 11.25H3.93751C3.78516 11.25 3.65333 11.3057 3.542 11.417C3.43067 11.5283 3.37501 11.6602 3.37501 11.8125V14.625H2.81251C2.66016 14.625 2.52833 14.6807 2.417 14.792C2.30567 14.9033 2.25 15.0352 2.25 15.1875C2.25 15.3398 2.30567 15.4717 2.417 15.583C2.52833 15.6943 2.66016 15.75 2.81251 15.75H12.9375C13.1016 15.75 13.2364 15.6943 13.3418 15.583C13.4473 15.4717 13.5 15.3398 13.5 15.1875C13.5 15.0352 13.4444 14.9033 13.333 14.792C13.2217 14.6807 13.0899 14.625 12.9375 14.625ZM10.125 0C10.4297 0 10.6875 0.105469 10.8985 0.316406L15.416 4.83398C15.6387 5.05664 15.75 5.32617 15.75 5.64258H10.125V0Z" fill="#5F5F5F"/>
</svg>
