<svg width="22" height="23" viewBox="0 0 22 23" fill="none" xmlns="http://www.w3.org/2000/svg">
<path d="M20.44 11.0499L11.25 20.2399C10.1241 21.3658 8.59714 21.9983 7.00495 21.9983C5.41277 21.9983 3.8858 21.3658 2.75995 20.2399C1.63411 19.1141 1.00162 17.5871 1.00162 15.9949C1.00162 14.4027 1.63411 12.8758 2.75995 11.7499L11.95 2.55992C12.7005 1.80936 13.7185 1.3877 14.78 1.3877C15.8414 1.3877 16.8594 1.80936 17.61 2.55992C18.3605 3.31048 18.7822 4.32846 18.7822 5.38992C18.7822 6.45137 18.3605 7.46936 17.61 8.21992L8.40995 17.4099C8.03467 17.7852 7.52568 17.996 6.99495 17.996C6.46423 17.996 5.95523 17.7852 5.57995 17.4099C5.20467 17.0346 4.99384 16.5256 4.99384 15.9949C4.99384 15.4642 5.20467 14.9552 5.57995 14.5799L14.07 6.09992" stroke="#5F5F5F" stroke-width="1.5" stroke-linecap="round" stroke-linejoin="round"/>
</svg>
