<svg width="16" height="13" viewBox="0 0 16 13" fill="none" xmlns="http://www.w3.org/2000/svg">
<path d="M0.131994 12.4402C0.280787 12.6642 0.531175 12.7994 0.799963 12.7994H12.7994C13.1194 12.7994 13.409 12.609 13.5346 12.3146L15.9345 6.71489C15.987 6.59324 16.0085 6.46042 15.997 6.3284C15.9854 6.19638 15.9411 6.06932 15.8682 5.95867C15.7952 5.84803 15.6959 5.75728 15.5791 5.69462C15.4624 5.63196 15.3318 5.59935 15.1993 5.59974H14.3993V3.19985C14.3993 2.31749 13.6818 1.59993 12.7994 1.59993H7.47565L5.43095 0H1.59993C0.717567 0 0 0.717567 0 1.59993V11.9994H0.00559971C0.00381669 12.1556 0.0477534 12.3088 0.131994 12.4402ZM12.7994 3.19985V5.59974H3.19985C2.87987 5.59974 2.59028 5.79013 2.46469 6.08452L1.59993 8.10282V3.19985H12.7994Z" fill="#5F5F5F"/>
</svg>
