<svg width="18" height="18" viewBox="0 0 18 18" fill="none" xmlns="http://www.w3.org/2000/svg">
<path d="M0 2.25C0 1.65326 0.237053 1.08097 0.65901 0.65901C1.08097 0.237053 1.65326 0 2.25 0L15.75 0C16.3467 0 16.919 0.237053 17.341 0.65901C17.7629 1.08097 18 1.65326 18 2.25V11.25C18 11.8467 17.7629 12.419 17.341 12.841C16.919 13.2629 16.3467 13.5 15.75 13.5H12.9375C12.7628 13.5 12.5906 13.5407 12.4344 13.6188C12.2782 13.6969 12.1423 13.8103 12.0375 13.95L9.9 16.7996C9.79521 16.9393 9.65933 17.0528 9.50311 17.1309C9.3469 17.209 9.17465 17.2496 9 17.2496C8.82535 17.2496 8.6531 17.209 8.49688 17.1309C8.34067 17.0528 8.20479 16.9393 8.1 16.7996L5.9625 13.95C5.85771 13.8103 5.72183 13.6969 5.56562 13.6188C5.4094 13.5407 5.23715 13.5 5.0625 13.5H2.25C1.65326 13.5 1.08097 13.2629 0.65901 12.841C0.237053 12.419 0 11.8467 0 11.25V2.25ZM5.625 6.75C5.625 6.45163 5.50647 6.16548 5.2955 5.95451C5.08452 5.74353 4.79837 5.625 4.5 5.625C4.20163 5.625 3.91548 5.74353 3.7045 5.95451C3.49353 6.16548 3.375 6.45163 3.375 6.75C3.375 7.04837 3.49353 7.33452 3.7045 7.5455C3.91548 7.75647 4.20163 7.875 4.5 7.875C4.79837 7.875 5.08452 7.75647 5.2955 7.5455C5.50647 7.33452 5.625 7.04837 5.625 6.75ZM10.125 6.75C10.125 6.45163 10.0065 6.16548 9.7955 5.95451C9.58452 5.74353 9.29837 5.625 9 5.625C8.70163 5.625 8.41548 5.74353 8.2045 5.95451C7.99353 6.16548 7.875 6.45163 7.875 6.75C7.875 7.04837 7.99353 7.33452 8.2045 7.5455C8.41548 7.75647 8.70163 7.875 9 7.875C9.29837 7.875 9.58452 7.75647 9.7955 7.5455C10.0065 7.33452 10.125 7.04837 10.125 6.75ZM13.5 7.875C13.7984 7.875 14.0845 7.75647 14.2955 7.5455C14.5065 7.33452 14.625 7.04837 14.625 6.75C14.625 6.45163 14.5065 6.16548 14.2955 5.95451C14.0845 5.74353 13.7984 5.625 13.5 5.625C13.2016 5.625 12.9155 5.74353 12.7045 5.95451C12.4935 6.16548 12.375 6.45163 12.375 6.75C12.375 7.04837 12.4935 7.33452 12.7045 7.5455C12.9155 7.75647 13.2016 7.875 13.5 7.875Z" fill="#5F5F5F"/>
</svg>
